<svg xmlns="http://www.w3.org/2000/svg" viewBox="-7.07 14.996 224.14 70">
  <path fill="#2ED03C" d="M35.847 50.701c0 3.574-.643 6.624-1.996 9.312-3.929 7.859-10.961 12.254-19.511 12.254-6.275 0-11.667-2.404-15.964-7.153-3.512-3.916-5.446-9.016-5.446-14.763S-4.781 39.265-.445 34.99c4.102-4.031 9.086-6.04 15.303-6.04 8.142 0 14.421 3.716 18.182 10.798.372.695.11 1.561-.584 1.933-.207.11-.437.168-.67.169H24.78c-.409-.001-.798-.177-1.069-.484-2.364-2.661-5.503-4.031-9.313-4.031-7.152 0-12.78 5.92-12.78 13.25 0 7.503 5.685 13.303 13.015 13.303 4.118.023 7.976-2.007 10.288-5.414.441-.648.273-1.53-.375-1.972-.242-.163-.527-.25-.818-.246h-12.55c-.787 0-1.423-.637-1.423-1.422v-4.116c0-.786.637-1.424 1.423-1.424h23.241c.776-.004 1.412.617 1.423 1.394l.005.013zM76.564 38.054c6.713-9.784 20.087-12.274 29.872-5.561 5.804 3.981 9.288 10.553 9.329 17.591 0 5.982-2.111 11.317-6.04 15.361-4.006 4.2-9.557 6.574-15.36 6.567-6.155 0-11.432-2.169-15.521-6.567-3.875-4.099-5.997-9.548-5.916-15.188-.076-4.345 1.195-8.608 3.636-12.203zM84.99 59.22c2.379 2.697 5.782 4.271 9.378 4.337 7.095 0 12.899-5.628 12.899-13.601-.131-7.123-6.013-12.791-13.136-12.659-6.937.129-12.53 5.722-12.659 12.659-.06 3.43 1.204 6.75 3.53 9.272l-.012-.008z"/>
  <path fill="#2ED03C" d="M49.438 52.688c-1.135 9.148-7.596 34.695-44.344 32.128 19.871 0 36.127-14.843 36.127-35.871.009-18.713-16.088-33.866-35.626-33.866 0 0 37.542-3.144 43.458 29.316h10.78c5.907-32.464 43.458-29.316 43.458-29.316-19.543 0-35.635 15.153-35.635 33.861 0 21.028 16.256 35.87 36.127 35.87-36.744 2.567-43.201-22.979-44.344-32.127h-3.384l-6.617.005zM144.362 46.732c-1.933-.368-3.934-.75-5.765-1.215-.572-.142-1.14-.271-1.69-.399-4.105-.936-6.252-1.57-6.252-4.723 0-4.24 6.963-5.37 11.086-5.37 2.373 0 8.018.403 9.167 4.119.344 1.165 1.411 1.966 2.624 1.969h4.622c1.165.007 2.115-.933 2.122-2.099.001-.103-.007-.207-.021-.309-1.077-7.565-10.083-10.261-18.149-10.261-5.401 0-10.337.998-13.901 2.812-4.436 2.257-6.777 5.765-6.777 10.088 0 9.077 12.234 11.086 21.166 12.532l2.15.359c5.078.798 7.649 2.59 7.649 5.321 0 2.279-1.569 6.097-12.07 6.097-8.461 0-9.915-3.339-10.27-5.849-.186-1.146-1.181-1.985-2.342-1.973h-4.603c-.664-.001-1.297.275-1.748.762-.442.48-.665 1.123-.615 1.774.62 7.646 7.418 11.857 19.144 11.857 13.617 0 21.728-4.971 21.728-13.303.018-8.894-9.163-10.646-17.255-12.189zM178.521 37.136h-11.697c-1.1 0-1.991-.568-1.991-1.273v-5.219c0-.701.887-1.273 1.991-1.273h34.881c1.101 0 1.99.568 1.99 1.273v5.219c0 .701-.886 1.273-1.99 1.273H191.2c-1.101 0-1.99.567-1.99 1.272v32.19c0 .7-.889 1.272-1.992 1.272h-4.715c-1.099 0-1.99-.568-1.99-1.272V38.404c-.005-.7-.892-1.268-1.992-1.268zM212.267 28.932c-2.6.052-4.75-2.014-4.802-4.615-.001-.062-.001-.125 0-.188 0-2.652 2.15-4.802 4.802-4.802 2.653 0 4.803 2.15 4.803 4.802.053 2.601-2.014 4.751-4.614 4.803-.063.002-.127.002-.189 0zm0-8.833c-2.184-.042-3.987 1.694-4.03 3.879-.001.051-.001.102 0 .152-.002 2.227 1.801 4.033 4.027 4.035 2.226.002 4.032-1.801 4.035-4.027v-.008c.041-2.184-1.695-3.988-3.88-4.031-.05-.001-.102-.001-.152 0zm1.078 4.434l1.077 2.115h-1.05l-1.025-2.022h-1.011v2.031h-.887v-5.241h2.301c.933 0 1.716.492 1.716 1.583.046.725-.438 1.376-1.144 1.543l.023-.009zm-.626-2.262h-1.383v1.49h1.383c.479 0 .838-.227.838-.745.003-.409-.329-.741-.737-.743-.033 0-.066.002-.101.006v-.008z"/>
</svg>
